<svg width="450" height="450" viewBox="0 0 450 450" fill="none" xmlns="http://www.w3.org/2000/svg">
<circle cx="225" cy="225" r="225" fill="#E0E0E0"/>
<path d="M412.5 225C412.5 253.413 406.18 280.35 394.869 304.482L366.198 286.05C280.186 230.756 169.814 230.756 83.8022 286.05L55.1305 304.482C43.8199 280.35 37.5 253.413 37.5 225C37.5 121.447 121.447 37.5 225 37.5C328.553 37.5 412.5 121.447 412.5 225ZM82.2031 346.518L110.84 328.109C180.382 283.403 269.618 283.403 339.16 328.109L367.797 346.518C333.405 386.893 282.193 412.5 225 412.5C167.807 412.5 116.595 386.893 82.2031 346.518Z" stroke="#212121" stroke-width="50"/>
</svg>
